<?xml version="1.0" encoding="UTF-8" standalone="no"?>
<svg
   xmlns:ns4="http://ns.adobe.com/SaveForWeb/1.0/"
   xmlns:ns3="http://ns.adobe.com/Variables/1.0/"
   xmlns:ns2="http://ns.adobe.com/AdobeIllustrator/10.0/"
   xmlns:dc="http://purl.org/dc/elements/1.1/"
   xmlns:cc="http://creativecommons.org/ns#"
   xmlns:rdf="http://www.w3.org/1999/02/22-rdf-syntax-ns#"
   xmlns:svg="http://www.w3.org/2000/svg"
   xmlns="http://www.w3.org/2000/svg"
   xmlns:sodipodi="http://sodipodi.sourceforge.net/DTD/sodipodi-0.dtd"
   xmlns:inkscape="http://www.inkscape.org/namespaces/inkscape"
   ns2:viewOrigin="262 450"
   ns2:rulerOrigin="0 0"
   ns2:pageBounds="0 792 612 0"
   width="128"
   height="128"
   viewBox="0 0 128 128"
   overflow="visible"
   enable-background="new 0 0 87.041 108.445"
   xml:space="preserve"
   version="1.1"
   id="svg31"
   sodipodi:docname="debian.svg"
   inkscape:version="1.0.2 (e86c870879, 2021-01-15)"><defs
   id="defs35" /><sodipodi:namedview
   pagecolor="#ffffff"
   bordercolor="#666666"
   borderopacity="1"
   objecttolerance="10"
   gridtolerance="10"
   guidetolerance="10"
   inkscape:pageopacity="0"
   inkscape:pageshadow="2"
   inkscape:window-width="1366"
   inkscape:window-height="713"
   id="namedview33"
   showgrid="false"
   inkscape:zoom="3.9553786"
   inkscape:cx="72.46637"
   inkscape:cy="69.605417"
   inkscape:window-x="0"
   inkscape:window-y="27"
   inkscape:window-maximized="1"
   inkscape:current-layer="svg31"
   inkscape:document-rotation="0"
   showguides="false" />
	<metadata
   id="metadata2">
		<ns3:variableSets>
			<ns3:variableSet
   varSetName="binding1"
   locked="none">
				<ns3:variables />
				<ns3:sampleDataSets />
			</ns3:variableSet>
		</ns3:variableSets>
		<ns4:sfw>
			<ns4:slices />
			<ns4:sliceSourceBounds
   y="341.555"
   x="262"
   width="87.041"
   height="108.445"
   bottomLeftOrigin="true" />
		</ns4:sfw>
	<rdf:RDF><cc:Work
     rdf:about=""><dc:format>image/svg+xml</dc:format><dc:type
       rdf:resource="http://purl.org/dc/dcmitype/StillImage" /><dc:title /></cc:Work></rdf:RDF></metadata>
	<rect
   style="mix-blend-mode:normal;fill:#ffffff;fill-opacity:1;stroke:none;stroke-width:0.955656;stroke-linecap:round;stroke-linejoin:round;stroke-miterlimit:4;stroke-dasharray:none;stroke-opacity:1"
   id="rect863"
   width="122.23058"
   height="122.23058"
   x="2.8847144"
   y="-125.1153"
   ry="61.115288"
   transform="scale(1,-1)" /><g
   id="Layer_1"
   ns2:layer="yes"
   ns2:dimmedPercent="50"
   ns2:rgbTrio="#4F008000FFFF"
   transform="matrix(1.0230322,0,0,1.0230322,19.546607,8.5889092)"
   style="fill:#a80030;fill-opacity:1;stroke:none;stroke-width:0.5;stroke-linecap:round;stroke-linejoin:bevel;stroke-miterlimit:4;stroke-dasharray:none;stroke-opacity:1;paint-order:normal">
		<g
   id="g28"
   style="fill:#a80030;fill-opacity:1;stroke:none;stroke-width:0.5;stroke-linecap:round;stroke-linejoin:bevel;stroke-miterlimit:4;stroke-dasharray:none;stroke-opacity:1;paint-order:normal">
			<path
   ns2:knockout="Off"
   fill="#a80030"
   d="m 51.986,57.297 c -1.797,0.025 0.34,0.926 2.686,1.287 0.648,-0.506 1.236,-1.018 1.76,-1.516 -1.461,0.358 -2.948,0.366 -4.446,0.229"
   id="path4"
   style="fill:#a80030;fill-opacity:1;stroke:none;stroke-width:0.5;stroke-linecap:round;stroke-linejoin:bevel;stroke-miterlimit:4;stroke-dasharray:none;stroke-opacity:1;paint-order:normal" />
			<path
   ns2:knockout="Off"
   fill="#a80030"
   d="m 61.631,54.893 c 1.07,-1.477 1.85,-3.094 2.125,-4.766 -0.24,1.192 -0.887,2.221 -1.496,3.307 -3.359,2.115 -0.316,-1.256 -0.002,-2.537 -3.612,4.546 -0.496,2.726 -0.627,3.996"
   id="path6"
   style="fill:#a80030;fill-opacity:1;stroke:none;stroke-width:0.5;stroke-linecap:round;stroke-linejoin:bevel;stroke-miterlimit:4;stroke-dasharray:none;stroke-opacity:1;paint-order:normal" />
			<path
   ns2:knockout="Off"
   fill="#a80030"
   d="m 65.191,45.629 c 0.217,-3.236 -0.637,-2.213 -0.924,-0.978 0.335,0.174 0.6,2.281 0.924,0.978"
   id="path8"
   style="fill:#a80030;fill-opacity:1;stroke:none;stroke-width:0.5;stroke-linecap:round;stroke-linejoin:bevel;stroke-miterlimit:4;stroke-dasharray:none;stroke-opacity:1;paint-order:normal" />
			<path
   ns2:knockout="Off"
   fill="#a80030"
   d="m 45.172,1.399 c 0.959,0.172 2.072,0.304 1.916,0.533 1.049,-0.23 1.287,-0.442 -1.916,-0.533"
   id="path10"
   style="fill:#a80030;fill-opacity:1;stroke:none;stroke-width:0.5;stroke-linecap:round;stroke-linejoin:bevel;stroke-miterlimit:4;stroke-dasharray:none;stroke-opacity:1;paint-order:normal" />
			<path
   ns2:knockout="Off"
   fill="#a80030"
   d="M 47.088,1.932 46.41,2.072 47.041,2.016 47.088,1.932"
   id="path12"
   style="fill:#a80030;fill-opacity:1;stroke:none;stroke-width:0.5;stroke-linecap:round;stroke-linejoin:bevel;stroke-miterlimit:4;stroke-dasharray:none;stroke-opacity:1;paint-order:normal" />
			<path
   ns2:knockout="Off"
   fill="#a80030"
   d="m 73.654704,47.635481 c 0.09625,2.613908 -0.764563,3.882185 -1.54082,6.127303 l -1.396903,0.698002 c -1.143247,2.219933 0.110637,1.409495 -0.707896,3.175187 -1.784581,1.586695 -5.415809,4.965167 -6.577945,5.273691 -0.848216,-0.01889 0.574771,-1.001129 0.760965,-1.386109 -2.389036,1.640663 -1.916806,2.462794 -5.57052,3.459425 l -0.107039,-0.237464 c -9.011057,4.23928 -21.528313,-4.161925 -21.363707,-15.624982 -0.09624,0.727684 -0.273444,0.545988 -0.47313,0.84012 -0.465035,-5.897934 2.723646,-11.821952 8.101676,-14.240672 5.260198,-2.604014 11.427078,-1.535424 15.195027,1.976172 -2.069718,-2.711053 -6.189367,-5.584912 -11.07178,-5.315966 -4.782571,0.07556 -9.256617,3.114922 -10.749765,6.414239 -2.450201,1.54262 -2.734439,5.946506 -3.80213,6.752446 -1.43648,10.557275 2.702058,15.118571 9.702762,20.484009 1.101871,0.742976 0.310323,0.855412 0.459638,1.421189 -2.326072,-1.089278 -4.456057,-2.73354 -6.207357,-4.746591 0.92917,1.360024 1.932097,2.682269 3.228257,3.721176 -2.192948,-0.742976 -5.122576,-5.314167 -5.977988,-5.50036 3.780542,6.768636 15.338046,11.870524 21.389792,9.339369 -2.800102,0.103441 -6.357571,0.05757 -9.503976,-1.105469 -1.321345,-0.680012 -3.11852,-2.088608 -2.797403,-2.352157 8.259086,3.085239 16.790717,2.336866 23.937138,-3.391964 1.817862,-1.415792 3.803929,-3.824618 4.377801,-3.857899 -0.864406,1.299759 0.147516,0.625144 -0.516305,1.772889 1.811566,-2.921533 -0.787051,-1.189122 1.872731,-5.045221 l 0.982239,1.352828 c -0.365191,-2.425016 3.011482,-5.369935 2.668777,-9.205346 0.774458,-1.172931 0.864407,1.26198 0.04228,3.960439 1.140549,-2.993491 0.300429,-3.474716 0.593661,-5.944707 0.31662,0.830227 0.732182,1.712623 0.945361,2.588723 -0.742976,-2.892749 0.762764,-4.87162 1.135152,-6.55276 -0.366991,-0.162807 -1.146846,1.27907 -1.324944,-2.13808 0.02608,-1.484153 0.412864,-0.778056 0.562179,-1.143247 -0.291433,-0.167305 -1.055997,-1.305155 -1.521032,-3.48731 0.337308,-0.512707 0.901286,1.329441 1.360024,1.404998 -0.295031,-1.735109 -0.803241,-3.058254 -0.82393,-4.389495 -1.340235,-2.801001 -0.474029,0.373287 -1.561508,-1.202613 -1.426586,-4.44976 1.183724,-1.032611 1.360023,-3.054657 2.162366,3.132912 3.395562,7.988341 3.961339,9.999593 -0.431753,-2.452 -1.129755,-4.827545 -1.981569,-7.125733 0.656626,0.276142 -1.057796,-5.04522 0.853613,-1.521032 -2.041834,-7.512512 -8.738512,-14.532106 -14.899096,-17.826026 0.75377,0.689907 1.705427,1.556112 1.363622,1.691935 -3.063652,-1.824159 -2.524859,-1.966278 -2.963809,-2.737138 -2.496075,-1.0155204 -2.659782,0.08185 -4.313038,0.0018 C 56.050852,8.462839 55.144169,8.7281876 50.81494,7.1648799 l 0.196988,0.9201748 C 47.895207,7.0470471 47.3807,8.4790298 44.012123,8.0886526 43.80704,7.928544 45.091507,7.5093832 46.148404,7.355571 43.135123,7.7531441 43.276343,6.7619099 40.327826,7.4653084 41.054611,6.9552995 41.822773,6.617992 42.59813,6.1844394 40.140733,6.3337542 36.731678,7.6146232 37.784078,6.449788 33.775965,8.2379674 26.657428,10.748435 22.662808,14.493897 L 22.53688,13.654676 c -1.830455,2.197446 -7.982044,6.562654 -8.472265,9.40863 l -0.48932,0.114235 c -0.952557,1.612779 -1.568705,3.440536 -2.324274,5.100089 -1.245789,2.122788 -1.8259575,0.816734 -1.6487586,1.149544 -2.4502016,4.967864 -3.667207,9.142382 -4.7187068,12.565828 0.7492723,1.119861 0.01799,6.741652 0.301328,11.240884 -1.2304977,22.220917 15.5952994,43.796003 33.9871014,48.777364 2.695762,0.96425 6.704774,0.92737 10.114727,1.02631 -4.023403,-1.15044 -4.543306,-0.60985 -8.46237,-1.97617 -2.827086,-1.331242 -3.446832,-2.851374 -5.44909,-4.589182 l 0.792448,1.4005 c -3.927158,-1.389706 -2.283796,-1.719818 -5.478773,-2.73174 l 0.846417,-1.10547 C 30.26257,93.939253 28.164068,91.890223 27.590196,90.75597 l -1.392406,0.05487 c -1.673045,-2.064322 -2.564436,-3.552073 -2.499673,-4.704315 l -0.449743,0.801443 c -0.510009,-0.875201 -6.155187,-7.741882 -3.226459,-6.143494 -0.544189,-0.497416 -1.267376,-0.809538 -2.051729,-2.234325 l 0.59636,-0.681811 C 17.15705,76.034973 15.972427,73.7107 16.062375,72.936242 c 0.751971,1.01552 1.273673,1.205312 1.789979,1.378913 -3.559269,-8.83116 -3.758955,-0.486622 -6.454716,-8.989469 l 0.570274,-0.04587 C 11.530762,64.621392 11.265413,63.9063 10.913714,63.2047 l 0.248258,-2.473588 C 8.5993348,57.768198 10.445081,48.132897 10.81477,42.848413 c 0.256354,-2.148873 2.138979,-4.436268 3.570962,-8.02342 L 13.51323,34.674779 c 1.667648,-2.90894 9.521966,-11.682533 13.159489,-11.23099 1.762095,-2.213637 -0.3499,-0.0081 -0.694403,-0.565777 3.870491,-4.005414 5.087496,-2.829785 7.699605,-3.550274 2.817192,-1.672146 -2.41782,0.652128 -1.082082,-0.637736 4.86982,-1.24399 3.45133,-2.827986 9.804404,-3.459426 0.670117,0.381383 -1.555212,0.589164 -2.113794,1.083882 4.057585,-1.985167 12.840172,-1.533625 18.544716,1.101871 6.619322,3.093334 14.056277,12.237515 14.34951,20.841105 l 0.33371,0.08995 c -0.169104,3.419849 0.523501,7.374891 -0.676414,11.007918 l 0.816733,-1.719819"
   id="path14"
   style="fill:#a80030;fill-opacity:1;stroke:none;stroke-width:0.449743;stroke-linecap:round;stroke-linejoin:bevel;stroke-miterlimit:4;stroke-dasharray:none;stroke-opacity:1;paint-order:normal" />
			<path
   ns2:knockout="Off"
   fill="#a80030"
   d="m 32.372,59.764 -0.252,1.26 c 1.181,1.604 2.118,3.342 3.626,4.596 -1.085,-2.118 -1.891,-2.993 -3.374,-5.856"
   id="path16"
   style="fill:#a80030;fill-opacity:1;stroke:none;stroke-width:0.5;stroke-linecap:round;stroke-linejoin:bevel;stroke-miterlimit:4;stroke-dasharray:none;stroke-opacity:1;paint-order:normal" />
			<path
   ns2:knockout="Off"
   fill="#a80030"
   d="m 35.164,59.654 c -0.625,-0.691 -0.995,-1.523 -1.409,-2.352 0.396,1.457 1.207,2.709 1.962,3.982 l -0.553,-1.63"
   id="path18"
   style="fill:#a80030;fill-opacity:1;stroke:none;stroke-width:0.5;stroke-linecap:round;stroke-linejoin:bevel;stroke-miterlimit:4;stroke-dasharray:none;stroke-opacity:1;paint-order:normal" />
			<path
   ns2:knockout="Off"
   fill="#a80030"
   d="m 84.568,48.916 -0.264,0.662 c -0.484,3.438 -1.529,6.84 -3.131,9.994 1.77,-3.328 2.915,-6.968 3.395,-10.656"
   id="path20"
   style="fill:#a80030;fill-opacity:1;stroke:none;stroke-width:0.5;stroke-linecap:round;stroke-linejoin:bevel;stroke-miterlimit:4;stroke-dasharray:none;stroke-opacity:1;paint-order:normal" />
			<path
   ns2:knockout="Off"
   fill="#a80030"
   d="M 45.527,0.537 C 46.742,0.092 48.514,0.293 49.803,0 48.123,0.141 46.451,0.225 44.8,0.438 l 0.727,0.099"
   id="path22"
   style="fill:#a80030;fill-opacity:1;stroke:none;stroke-width:0.5;stroke-linecap:round;stroke-linejoin:bevel;stroke-miterlimit:4;stroke-dasharray:none;stroke-opacity:1;paint-order:normal" />
			<path
   ns2:knockout="Off"
   fill="#a80030"
   d="m 2.872,23.219 c 0.28,2.592 -1.95,3.598 0.494,1.889 1.31,-2.951 -0.512,-0.815 -0.494,-1.889"
   id="path24"
   style="fill:#a80030;fill-opacity:1;stroke:none;stroke-width:0.5;stroke-linecap:round;stroke-linejoin:bevel;stroke-miterlimit:4;stroke-dasharray:none;stroke-opacity:1;paint-order:normal" />
			<path
   ns2:knockout="Off"
   fill="#a80030"
   d="M 0,35.215 C 0.563,33.487 0.665,32.449 0.88,31.449 -0.676,33.438 0.164,33.862 0,35.215"
   id="path26"
   style="fill:#a80030;fill-opacity:1;stroke:none;stroke-width:0.5;stroke-linecap:round;stroke-linejoin:bevel;stroke-miterlimit:4;stroke-dasharray:none;stroke-opacity:1;paint-order:normal" />
		</g>
	</g>
</svg>
